<svg viewBox="0 0 64 65" fill="none" xmlns="www.w3.org/2000/svg">
<path d="M40.259 42.6304V8.50806C40.259 3.95477 36.5542 0.25 32.0009 0.25C27.4476 0.25 23.7428 3.95477 23.7428 8.50806V42.6304C20.5913 45.4454 19.109 49.5981 19.7666 53.8407C20.6099 59.2807 25.0321 63.5254 30.5186 64.1633C31.0037 64.2201 31.4868 64.2479 31.9699 64.2479C35.0089 64.2479 37.9591 63.1434 40.2342 61.1171C42.8737 58.7666 44.388 55.3943 44.388 51.8629C44.388 48.3192 42.8892 44.9819 40.259 42.6304ZM38.8623 59.5749C36.6316 61.5599 33.7578 62.458 30.756 62.1122C26.2615 61.5888 22.4969 57.977 21.8063 53.5228C21.2344 49.8428 22.5908 46.2454 25.4316 43.899L25.8063 43.5894V8.50806C25.8063 5.09232 28.5841 2.31452 31.9999 2.31452C35.4156 2.31452 38.1934 5.09232 38.1934 8.50806V43.5904L38.5681 43.9001C40.9557 45.8696 42.3235 48.7723 42.3235 51.8629C42.3235 54.8059 41.0621 57.6167 38.8623 59.5749Z" fill="#0D47A1"/>
<path d="M36.1286 44.7196V8.50794C36.1286 6.23078 34.2767 4.37891 31.9995 4.37891C29.7224 4.37891 27.8705 6.23078 27.8705 8.50794V44.7196C25.2372 46.2411 23.6362 49.0953 23.7477 52.1652C23.9015 56.4801 27.5412 60.0486 31.8591 60.1198C31.9066 60.1208 31.9531 60.1208 32.0006 60.1208C34.1817 60.1208 36.2328 59.2816 37.7895 57.7508C39.3812 56.1859 40.2576 54.0945 40.2576 51.8628C40.2576 48.9208 38.6566 46.1854 36.1286 44.7196ZM31.9995 6.44342C33.1381 6.44342 34.064 7.36936 34.064 8.50794V10.5725H29.935V8.50794C29.935 7.36936 30.8609 6.44342 31.9995 6.44342ZM36.3422 56.2788C35.15 57.4525 33.5789 58.079 31.8932 58.0553C28.654 58.0016 25.9257 55.326 25.8091 52.0909C25.7203 49.6207 27.1087 47.3384 29.3456 46.2731L29.935 45.9934V12.637H34.064V45.9934L34.6524 46.2731C36.8026 47.2971 38.1931 49.4906 38.1931 51.8628C38.1931 53.5371 37.5355 55.1051 36.3422 56.2788Z" fill="#0D47A1"/>
<path d="M58.8383 52.8955H46.4512V54.96H58.8383C59.4081 54.96 59.8705 55.4235 59.8705 55.9923C59.8705 56.5611 59.4081 57.0245 58.8383 57.0245C58.2685 57.0245 57.806 56.5611 57.806 55.9923H55.7415C55.7415 57.6996 57.1309 59.0891 58.8383 59.0891C60.5456 59.0891 61.935 57.6996 61.935 55.9923C61.935 54.2849 60.5456 52.8955 58.8383 52.8955Z" fill="#0D47A1"/>
<path d="M60.9028 44.6367C59.1954 44.6367 57.806 46.0261 57.806 47.7335H59.8705C59.8705 47.1647 60.333 46.7012 60.9028 46.7012C61.4726 46.7012 61.935 47.1647 61.935 47.7335C61.935 48.3023 61.4726 48.7658 60.9028 48.7658H46.4512V50.8303H60.9028C62.6101 50.8303 63.9996 49.4408 63.9996 47.7335C63.9996 46.0261 62.6101 44.6367 60.9028 44.6367Z" fill="#0D47A1"/>
<path d="M14.7066 9.5401C13.857 9.5401 13.4834 9.2263 12.9187 8.75042C12.2436 8.18268 11.4044 7.47559 9.80129 7.47559C8.19819 7.47559 7.36 8.18268 6.6849 8.75042C6.12026 9.2263 5.74658 9.5401 4.89806 9.5401C4.05161 9.5401 3.67794 9.2263 3.11432 8.75042C2.44026 8.18268 1.60206 7.47559 0 7.47559V9.5401C0.847484 9.5401 1.22116 9.85391 1.78477 10.3298C2.45884 10.8975 3.29703 11.6046 4.89806 11.6046C6.50116 11.6046 7.33935 10.8975 8.01548 10.3298C8.58013 9.85391 8.95277 9.5401 9.80129 9.5401C10.6508 9.5401 11.0245 9.85391 11.5892 10.3298C12.2632 10.8975 13.1035 11.6046 14.7066 11.6046C16.3107 11.6046 17.1499 10.8975 17.825 10.3298C18.3897 9.85391 18.7634 9.5401 19.6129 9.5401V7.47559C18.0098 7.47559 17.1706 8.18268 16.4955 8.75042C15.9308 9.2263 15.5572 9.5401 14.7066 9.5401Z" fill="#0D47A1"/>
<path d="M14.7066 4.37897C13.857 4.37897 13.4834 4.06516 12.9187 3.58929C12.2436 3.02155 11.4044 2.31445 9.80129 2.31445C8.19819 2.31445 7.36 3.02155 6.6849 3.58929C6.12026 4.06516 5.74658 4.37897 4.89806 4.37897C4.05161 4.37897 3.67794 4.06516 3.11432 3.58929C2.44026 3.02155 1.60206 2.31445 0 2.31445V4.37897C0.847484 4.37897 1.22116 4.69278 1.78477 5.16865C2.45884 5.73639 3.29703 6.44349 4.89806 6.44349C6.50116 6.44349 7.33935 5.73639 8.01548 5.16865C8.58013 4.69278 8.95277 4.37897 9.80129 4.37897C10.6508 4.37897 11.0245 4.69278 11.5892 5.16865C12.2643 5.73639 13.1035 6.44349 14.7066 6.44349C16.3107 6.44349 17.1499 5.73639 17.825 5.16865C18.3897 4.69278 18.7634 4.37897 19.6129 4.37897V2.31445C18.0098 2.31445 17.1706 3.02155 16.4955 3.58929C15.9308 4.06516 15.5572 4.37897 14.7066 4.37897Z" fill="#0D47A1"/>
<path d="M14.7066 14.7012C13.857 14.7012 13.4834 14.3874 12.9187 13.9116C12.2436 13.3438 11.4044 12.6367 9.80129 12.6367C8.19819 12.6367 7.36 13.3438 6.68387 13.9116C6.12026 14.3874 5.74658 14.7012 4.89806 14.7012C4.05161 14.7012 3.67794 14.3874 3.11432 13.9116C2.44026 13.3438 1.60206 12.6367 0 12.6367V14.7012C0.847484 14.7012 1.22116 15.015 1.78477 15.4909C2.45884 16.0587 3.29703 16.7658 4.89806 16.7658C6.50116 16.7658 7.33935 16.0587 8.01548 15.4909C8.58013 15.015 8.95277 14.7012 9.80129 14.7012C10.6508 14.7012 11.0245 15.015 11.5892 15.4909C12.2632 16.0587 13.1035 16.7658 14.7066 16.7658C16.3107 16.7658 17.1499 16.0587 17.825 15.4909C18.3897 15.015 18.7634 14.7012 19.6129 14.7012V12.6367C18.0098 12.6367 17.1706 13.3438 16.4955 13.9116C15.9308 14.3874 15.5572 14.7012 14.7066 14.7012Z" fill="#0D47A1"/>
<path d="M15.3105 53.4686L13.5928 52.3228L11.8348 54.9602H9.29032V52.4157L11.9277 50.6577L10.7819 48.9401L9.29032 49.9351V47.7344H7.22581V49.9351L5.73419 48.9401L4.58839 50.6577L7.22581 52.4157V54.9602H4.68129L2.92335 52.3228L1.20568 53.4686L2.19974 54.9602H0V57.0247H2.19974L1.20568 58.5163L2.92335 59.6621L4.68129 57.0247H7.22581V59.5692L4.58839 61.3271L5.73419 63.0448L7.22581 62.0497V64.2505H9.29032V62.0497L10.7819 63.0448L11.9277 61.3271L9.29032 59.5692V57.0247H11.8348L13.5928 59.6621L15.3105 58.5163L14.3164 57.0247H16.5161V54.9602H14.3164L15.3105 53.4686Z" fill="#0D47A1"/>
<path d="M52.6447 17.7982C56.0605 17.7982 58.8383 15.0204 58.8383 11.6047C58.8383 8.18894 56.0605 5.41113 52.6447 5.41113C49.229 5.41113 46.4512 8.18894 46.4512 11.6047C46.4512 15.0204 49.229 17.7982 52.6447 17.7982ZM52.6447 7.47565C54.9219 7.47565 56.7738 9.32752 56.7738 11.6047C56.7738 13.8818 54.9219 15.7337 52.6447 15.7337C50.3676 15.7337 48.5157 13.8818 48.5157 11.6047C48.5157 9.32752 50.3676 7.47565 52.6447 7.47565Z" fill="#0D47A1"/>
<path d="M46.9664 21.4392C47.6487 21.8345 48.4188 21.8046 49.033 21.7777C49.3591 21.7643 49.6988 21.7509 49.9124 21.8077C50.1055 21.8593 50.38 22.0337 50.6453 22.203C51.1739 22.5406 51.8314 22.9597 52.6459 22.9597C53.4603 22.9597 54.1179 22.5406 54.6464 22.2041C54.9117 22.0348 55.1862 21.8603 55.3803 21.8077C55.5919 21.7519 55.9295 21.7643 56.2577 21.7777C56.8771 21.8035 57.643 21.8335 58.3253 21.4381C59.0159 21.0386 59.3741 20.3532 59.66 19.803C59.8097 19.5171 59.9635 19.2219 60.1132 19.0722C60.2629 18.9225 60.5581 18.7687 60.843 18.6201C61.3942 18.3321 62.0797 17.9749 62.4791 17.2833C62.8745 16.601 62.8446 15.833 62.8188 15.2157C62.8053 14.8885 62.7919 14.5509 62.8477 14.3393C62.8993 14.1463 63.0748 13.8717 63.244 13.6064C63.5816 13.0779 64.0007 12.4193 64.0007 11.6048C64.0007 10.7904 63.5816 10.1318 63.2451 9.60329C63.0758 9.338 62.9003 9.06342 62.8497 8.87245C62.7919 8.65981 62.8064 8.32226 62.8198 7.99503C62.8446 7.37671 62.8766 6.60871 62.4802 5.92639C62.0807 5.23581 61.3953 4.87761 60.844 4.59064C60.5591 4.44097 60.2629 4.28716 60.1142 4.13852C59.9646 3.98884 59.8108 3.69361 59.6621 3.40768C59.3741 2.85645 59.0159 2.17103 58.3253 1.77052C57.643 1.37619 56.876 1.40716 56.2588 1.43194C55.9326 1.44535 55.5929 1.45981 55.3793 1.402C55.1862 1.35039 54.9117 1.17594 54.6464 1.00665C54.1179 0.669097 53.4603 0.25 52.6459 0.25C51.8314 0.25 51.1739 0.669097 50.6453 1.00561C50.38 1.1749 50.1055 1.34935 49.9114 1.402C49.6998 1.45877 49.3612 1.44535 49.034 1.43194C48.4157 1.40613 47.6487 1.37619 46.9664 1.77155C46.2758 2.17103 45.9176 2.85645 45.6317 3.40665C45.482 3.69258 45.3282 3.98781 45.1785 4.13748C45.0288 4.28716 44.7336 4.44097 44.4487 4.58961C43.8975 4.87761 43.212 5.23477 42.8126 5.92639C42.4172 6.60871 42.4471 7.37671 42.473 7.994C42.4864 8.32123 42.4998 8.65877 42.444 8.87039C42.3924 9.06342 42.217 9.338 42.0477 9.60329C41.7101 10.1318 41.291 10.7904 41.291 11.6048C41.291 12.4193 41.7101 13.0779 42.0466 13.6064C42.2159 13.8717 42.3914 14.1463 42.442 14.3372C42.4998 14.5499 42.4853 14.8874 42.4719 15.2146C42.4471 15.833 42.4151 16.601 42.8115 17.2833C43.211 17.9739 43.8964 18.3321 44.4477 18.619C44.7326 18.7687 45.0288 18.9225 45.1775 19.0712C45.3271 19.2208 45.4809 19.5161 45.6296 19.802C45.9176 20.3532 46.2758 21.0397 46.9664 21.4392ZM45.4025 16.7899C45.0722 16.6175 44.6975 16.4224 44.5984 16.25C44.5024 16.0859 44.5199 15.6678 44.5344 15.2993C44.554 14.842 44.5746 14.3228 44.4363 13.8056C44.3021 13.306 44.0286 12.8766 43.788 12.4977C43.5857 12.1788 43.3555 11.8175 43.3555 11.6048C43.3555 11.3922 43.5857 11.0309 43.7891 10.7119C44.0296 10.3331 44.3031 9.90368 44.4384 9.40303C44.5757 8.88793 44.554 8.36871 44.5364 7.91039C44.521 7.54187 44.5044 7.12381 44.6004 6.95864C44.6995 6.78626 45.0732 6.59219 45.4035 6.41981C45.8082 6.20923 46.2655 5.96974 46.6371 5.5971C47.0118 5.22342 47.2513 4.7651 47.4619 4.36045C47.6342 4.03013 47.8293 3.65645 47.9997 3.55735C48.1648 3.46239 48.5808 3.47787 48.9504 3.49439C49.4077 3.514 49.929 3.53464 50.444 3.39632C50.9447 3.26213 51.3741 2.98858 51.754 2.74703C52.0719 2.54471 52.4332 2.31452 52.6459 2.31452C52.8585 2.31452 53.2198 2.54471 53.5377 2.74703C53.9166 2.98858 54.346 3.26213 54.8466 3.39529C55.3638 3.53361 55.8851 3.51297 56.3413 3.49439C56.7068 3.47787 57.1259 3.46135 57.291 3.55735C57.4634 3.65748 57.6585 4.03219 57.8309 4.36252C58.0415 4.76613 58.281 5.22445 58.6536 5.5971C59.0262 5.96974 59.4846 6.20923 59.8882 6.41981C60.2185 6.59219 60.5932 6.78729 60.6923 6.95968C60.7883 7.12381 60.7708 7.54187 60.7563 7.91039C60.7367 8.36768 60.716 8.8869 60.8544 9.40406C60.9886 9.90368 61.2621 10.3331 61.5026 10.7119C61.706 11.0309 61.9362 11.3922 61.9362 11.6048C61.9362 11.8175 61.706 12.1788 61.5026 12.4977C61.2621 12.8766 60.9886 13.306 60.8533 13.8066C60.716 14.3217 60.7377 14.841 60.7553 15.2993C60.7708 15.6678 60.7873 16.0859 60.6913 16.251C60.5922 16.4234 60.2185 16.6175 59.8882 16.7899C59.4835 17.0005 59.0262 17.2399 58.6546 17.6126C58.2799 17.9863 58.0404 18.4446 57.8299 18.8492C57.6575 19.1795 57.4624 19.5532 57.292 19.6523C57.1269 19.7473 56.7109 19.7318 56.3413 19.7153C55.8851 19.6977 55.3638 19.6771 54.8477 19.8134C54.347 19.9475 53.9176 20.2211 53.5377 20.4626C53.2198 20.665 52.8585 20.8952 52.6459 20.8952C52.4332 20.8952 52.0719 20.665 51.754 20.4626C51.3751 20.2211 50.9457 19.9475 50.4451 19.8144C50.1117 19.7256 49.7772 19.7029 49.4582 19.7029C49.2828 19.7029 49.1124 19.7091 48.9504 19.7163C48.5829 19.7318 48.1648 19.7483 48.0007 19.6534C47.8283 19.5532 47.6332 19.1785 47.4608 18.8482C47.2502 18.4446 47.0108 17.9863 46.6381 17.6136C46.2655 17.241 45.8071 17.0005 45.4025 16.7899Z" fill="#0D47A1"/>
</svg>
